HIERARCHY
ROOT hips
{
  OFFSET 0 10.680822821525009 1.3929502295107734
  CHANNELS 6 Xposition Yposition Zposition Yrotation Xrotation Zrotation
  JOINT spine
  {
    OFFSET -7.042017322922631e-31 0.6058489940359625 0
    CHANNELS 3 Yrotation Xrotation Zrotation
    JOINT chest
    {
      OFFSET 0 1.2699794144455032 0
      CHANNELS 3 Yrotation Xrotation Zrotation
      JOINT upperChest
      {
        OFFSET 0 1.217799211677689 0
        CHANNELS 3 Yrotation Xrotation Zrotation
        JOINT neck
        {
          OFFSET 0 1.5248826104153006 0
          CHANNELS 3 Yrotation Xrotation Zrotation
          JOINT head
          {
            OFFSET 0 0.8197772727844447 0
            CHANNELS 3 Yrotation Xrotation Zrotation
            JOINT leftEye
            {
              OFFSET 0.2793952361220866 0.6769952096623495 0.1830357412467788
              CHANNELS 3 Yrotation Xrotation Zrotation
              End Site
              {
                OFFSET 0.2793952361220866 0.6769952096623495 0.1830357412467788
              }
            }
            JOINT rightEye
            {
              OFFSET -0.27939522230689573 0.676995205357064 0.18303631459760622
              CHANNELS 3 Yrotation Xrotation Zrotation
              End Site
              {
                OFFSET -0.27939522230689573 0.676995205357064 0.18303631459760622
              }
            }
          }
        }
        JOINT leftShoulder
        {
          OFFSET 0.41486978509200423 1.1670505408695453 0
          CHANNELS 3 Yrotation Xrotation Zrotation
          JOINT leftUpperArm
          {
            OFFSET 0.9737926108153417 0 0
            CHANNELS 3 Yrotation Xrotation Zrotation
            JOINT leftLowerArm
            {
              OFFSET 2.5269332222665284 0 0
              CHANNELS 3 Yrotation Xrotation Zrotation
              JOINT leftHand
              {
                OFFSET 2.4263782738425914 0 0
                CHANNELS 3 Yrotation Xrotation Zrotation
                JOINT leftIndexProximal
                {
                  OFFSET 0.724320348022514 0.08170607082582437 0.20360061616140124
                  CHANNELS 3 Yrotation Xrotation Zrotation
                  JOINT leftIndexIntermediate
                  {
                    OFFSET 0.36548960630744587 -0.010566596513783999 -0.01414783573280308
                    CHANNELS 3 Yrotation Xrotation Zrotation
                    JOINT leftIndexDistal
                    {
                      OFFSET 0.22502819650693362 -0.007863819831430696 -0.007567681939621526
                      CHANNELS 3 Yrotation Xrotation Zrotation
                      End Site
                      {
                        OFFSET 0.22502819650693362 -0.007863819831430696 -0.007567681939621526
                      }
                    }
                  }
                }
                JOINT leftLittleProximal
                {
                  OFFSET 0.6720322998298205 0.08170601055037707 -0.3230036039466837
                  CHANNELS 3 Yrotation Xrotation Zrotation
                  JOINT leftLittleIntermediate
                  {
                    OFFSET 0.34583592281688713 5.476543019078406e-8 1.3869203337180114e-7
                    CHANNELS 3 Yrotation Xrotation Zrotation
                    JOINT leftLittleDistal
                    {
                      OFFSET 0.19925728062053938 0.003098047439490381 0.0038303983709246925
                      CHANNELS 3 Yrotation Xrotation Zrotation
                      End Site
                      {
                        OFFSET 0.19925728062053938 0.003098047439490381 0.0038303983709246925
                      }
                    }
                  }
                }
                JOINT leftMiddleProximal
                {
                  OFFSET 0.7300436596551069 0.0817073395107144 0.022661722987926763
                  CHANNELS 3 Yrotation Xrotation Zrotation
                  JOINT leftMiddleIntermediate
                  {
                    OFFSET 0.40758254347686607 -0.0000012383587111308714 2.408460318820138e-7
                    CHANNELS 3 Yrotation Xrotation Zrotation
                    JOINT leftMiddleDistal
                    {
                      OFFSET 0.2514490105498507 0.0000013869132886590307 9.738618134136345e-8
                      CHANNELS 3 Yrotation Xrotation Zrotation
                      End Site
                      {
                        OFFSET 0.2514490105498507 0.0000013869132886590307 9.738618134136345e-8
                      }
                    }
                  }
                }
                JOINT leftRingProximal
                {
                  OFFSET 0.7217261161191838 0.08170601902187746 -0.15043395722184966
                  CHANNELS 3 Yrotation Xrotation Zrotation
                  JOINT leftRingIntermediate
                  {
                    OFFSET 0.37808807487521556 0.0000013754022405443322 2.2046919317952884e-7
                    CHANNELS 3 Yrotation Xrotation Zrotation
                    JOINT leftRingDistal
                    {
                      OFFSET 0.21812105442344254 -0.002713483731960231 -0.004991354517454624
                      CHANNELS 3 Yrotation Xrotation Zrotation
                      End Site
                      {
                        OFFSET 0.21812105442344254 -0.002713483731960231 -0.004991354517454624
                      }
                    }
                  }
                }
                JOINT leftThumbProximal
                {
                  OFFSET 0.10793587079521427 -0.1652791240518252 -0.07775251827190094
                  CHANNELS 3 Yrotation Xrotation Zrotation
                  JOINT leftThumbIntermediate
                  {
                    OFFSET 0.40355819082296684 -0.017484006740276614 0.3177776014416309
                    CHANNELS 3 Yrotation Xrotation Zrotation
                    JOINT leftThumbDistal
                    {
                      OFFSET 0.2318764658022603 -0.018510186824293617 0.21396001800186287
                      CHANNELS 3 Yrotation Xrotation Zrotation
                      End Site
                      {
                        OFFSET 0.2318764658022603 -0.018510186824293617 0.21396001800186287
                      }
                    }
                  }
                }
              }
            }
          }
        }
        JOINT rightShoulder
        {
          OFFSET -0.4148697850920044 1.1670505408695453 0
          CHANNELS 3 Yrotation Xrotation Zrotation
          JOINT rightUpperArm
          {
            OFFSET -0.9737926108153414 0 0
            CHANNELS 3 Yrotation Xrotation Zrotation
            JOINT rightLowerArm
            {
              OFFSET -2.5269332222665293 0 0
              CHANNELS 3 Yrotation Xrotation Zrotation
              JOINT rightHand
              {
                OFFSET -2.42637827384259 0 0
                CHANNELS 3 Yrotation Xrotation Zrotation
                JOINT rightIndexProximal
                {
                  OFFSET -0.724320348022514 0.08170607082582437 0.20360061616140124
                  CHANNELS 3 Yrotation Xrotation Zrotation
                  JOINT rightIndexIntermediate
                  {
                    OFFSET -0.36548960630744587 -0.010566596513783999 -0.01414783573280308
                    CHANNELS 3 Yrotation Xrotation Zrotation
                    JOINT rightIndexDistal
                    {
                      OFFSET -0.22502819650693362 -0.007863819831430696 -0.007567681939621526
                      CHANNELS 3 Yrotation Xrotation Zrotation
                      End Site
                      {
                        OFFSET -0.22502819650693362 -0.007863819831430696 -0.007567681939621526
                      }
                    }
                  }
                }
                JOINT rightLittleProximal
                {
                  OFFSET -0.6720322998298205 0.08170601055037707 -0.3230036039466837
                  CHANNELS 3 Yrotation Xrotation Zrotation
                  JOINT rightLittleIntermediate
                  {
                    OFFSET -0.34583592281688713 5.476543019078406e-8 1.3869203337180114e-7
                    CHANNELS 3 Yrotation Xrotation Zrotation
                    JOINT rightLittleDistal
                    {
                      OFFSET -0.19925728062053938 0.003098047439490381 0.0038303983709246925
                      CHANNELS 3 Yrotation Xrotation Zrotation
                      End Site
                      {
                        OFFSET -0.19925728062053938 0.003098047439490381 0.0038303983709246925
                      }
                    }
                  }
                }
                JOINT rightMiddleProximal
                {
                  OFFSET -0.7300436596551069 0.0817073395107144 0.022661722987926763
                  CHANNELS 3 Yrotation Xrotation Zrotation
                  JOINT rightMiddleIntermediate
                  {
                    OFFSET -0.40758254347686607 -0.0000012383587111308714 2.408460318820138e-7
                    CHANNELS 3 Yrotation Xrotation Zrotation
                    JOINT rightMiddleDistal
                    {
                      OFFSET -0.2514490105498507 0.0000013869132886590307 9.738618134136345e-8
                      CHANNELS 3 Yrotation Xrotation Zrotation
                      End Site
                      {
                        OFFSET -0.2514490105498507 0.0000013869132886590307 9.738618134136345e-8
                      }
                    }
                  }
                }
                JOINT rightRingProximal
                {
                  OFFSET -0.7217261161191838 0.08170601902187746 -0.15043395722184966
                  CHANNELS 3 Yrotation Xrotation Zrotation
                  JOINT rightRingIntermediate
                  {
                    OFFSET -0.37808807487521556 0.0000013754022405443322 2.2046919317952884e-7
                    CHANNELS 3 Yrotation Xrotation Zrotation
                    JOINT rightRingDistal
                    {
                      OFFSET -0.21812105442344254 -0.002713483731960231 -0.004991354517454624
                      CHANNELS 3 Yrotation Xrotation Zrotation
                      End Site
                      {
                        OFFSET -0.21812105442344254 -0.002713483731960231 -0.004991354517454624
                      }
                    }
                  }
                }
                JOINT rightThumbProximal
                {
                  OFFSET -0.10793587079521427 -0.1652791240518252 -0.07775251827190094
                  CHANNELS 3 Yrotation Xrotation Zrotation
                  JOINT rightThumbIntermediate
                  {
                    OFFSET -0.40355819082296684 -0.017484006740276614 0.3177776014416309
                    CHANNELS 3 Yrotation Xrotation Zrotation
                    JOINT rightThumbDistal
                    {
                      OFFSET -0.2318764658022603 -0.018510186824293617 0.21396001800186287
                      CHANNELS 3 Yrotation Xrotation Zrotation
                      End Site
                      {
                        OFFSET -0.2318764658022603 -0.018510186824293617 0.21396001800186287
                      }
                    }
                  }
                }
              }
            }
          }
        }
      }
    }
  }
  JOINT leftUpperLeg
  {
    OFFSET 0.8486251390888677 -0.4421577294694363 0
    CHANNELS 3 Yrotation Xrotation Zrotation
    JOINT leftLowerLeg
    {
      OFFSET 0 -4.10147812638609 0
      CHANNELS 3 Yrotation Xrotation Zrotation
      JOINT leftFoot
      {
        OFFSET -0.0002543926476658853 -4.77292286812444 0.007402811231737388
        CHANNELS 3 Yrotation Xrotation Zrotation
        JOINT leftToes
        {
          OFFSET 0 -0.7027875951174846 1.2062924140498823
          CHANNELS 3 Yrotation Xrotation Zrotation
          End Site
          {
            OFFSET 0 -0.7027875951174846 1.2062924140498823
          }
        }
      }
    }
  }
  JOINT rightUpperLeg
  {
    OFFSET -0.8486251390888677 -0.4421577294694363 0
    CHANNELS 3 Yrotation Xrotation Zrotation
    JOINT rightLowerLeg
    {
      OFFSET 0 -4.10147812638609 0
      CHANNELS 3 Yrotation Xrotation Zrotation
      JOINT rightFoot
      {
        OFFSET 0.0002543926476658853 -4.77292286812444 0.007402811231737388
        CHANNELS 3 Yrotation Xrotation Zrotation
        JOINT rightToes
        {
          OFFSET 0 -0.7027875951174846 1.2062924140498823
          CHANNELS 3 Yrotation Xrotation Zrotation
          End Site
          {
            OFFSET 0 -0.7027875951174846 1.2062924140498823
          }
        }
      }
    }
  }
}
MOTION
Frames: 4
Frame Time: 0.03333333333333333
-0.08994121849536896 -1.637361021903427 0.09540180116891861 -3.8938938969910986 -6.345588817763919 -1.8952675457986266 5.715185438970961 20.275666063265533 3.8358430188262758 3.3525171379788503 14.164717320342092 0.6920296427506928 0 0 0 -2.2201035533941886 2.9196311684502962 3.381126142638464 -10.501560475514198 -25.878721294074577 5.113562482974926 0 0 0 0 0 0 0.20166616656254374 0.3212740652869454 -3.659624239469596 -15.088257147176948 2.6023679469559613 -43.996348395471394 -124.16807752785994 -5.570503771292862 13.248240964499693 8.832307334367886 34.59511207778663 -3.09829138596474 6.1265681066443305 6.959427512801189 -97.30042667317996 6.111957950729785 7.0653746429467486 -98.29648336657709 4.66929504798394 2.136800243399879 -49.16261212602536 5.617784312080074 10.988758719689208 -96.92184488111172 1.9946585166334199 7.097736633727576 -98.75658822614115 4.669287384194047 2.1367914861306794 -49.16260730574081 6.126787305947453 6.957705574199391 -97.2843893420786 6.111721476581629 7.067104722403314 -98.3125328011298 4.669292493387327 2.136794476417718 -49.162599899905736 6.126567251446038 6.959427082745805 -97.30042667317996 6.111957950729785 7.0653746429467486 -98.29648336657709 4.669295473750041 2.136800456991811 -49.16261212602536 10.157644091755238 33.85992105248742 5.27378742749987 61.116912098846846 31.600710805023212 4.056371027726206 27.164952301572516 12.469397169790689 -2.411528547634753 -2.861110302736405 0.04444696355880969 0.4157274334662531 63.229319819487394 -8.353408476116055 32.60827401861623 102.23191027958504 -7.031927137309211 -10.528039340015582 -5.2820917993798755 41.72328408196853 -21.464108081207506 -6.101750090912027 7.567265925079894 102.26755457714553 -6.101766728615297 7.567269370178064 102.26753280493537 -4.858842765926351 2.3258212157891456 51.13807040302562 -6.101752231899912 7.5672676476289755 102.26755457714553 -6.101769297800753 7.567271954001709 102.26753280493537 -4.858847022960866 2.3258212157891456 51.13806559708134 -6.101750519109605 7.5672650638053565 102.26755457714553 -6.101766728615297 7.567269370178064 102.26753280493537 -4.858842765926351 2.3258212157891456 51.13807040302562 -6.101750947307183 7.567265925079894 102.26755457714553 -6.101767156812874 7.567269370178064 102.26753280493537 -4.858842765926351 2.3258212157891456 51.13807040302562 12.505732753306608 41.0420780782166 9.978902220393788 -28.819428455058528 59.839787743033234 -8.874111970899056 -10.263368635207737 27.73197116061607 1.5695168742452634 5.434463791432605 -27.21086821198226 22.4137474701168 -6.415522879078335 55.47915535300525 2.937949684464303 -1.797544845220296 -18.747072130947874 -20.636348596988604 0.000008977000824946596 -9.855378061610487 0.000009667832982445026 -0.36669374751576184 -29.575404405174652 -2.6049781652946296 9.136819816353816 65.02154802298708 0.5557377504515636 -1.4816348258225478 -25.71931687206078 9.090196183849232 -5.300403646764152e-7 -7.131331743798359 -0.0000049247880475733644
-0.0311285387724638 -1.6343664845499113 0.0920405164361 -4.463646361030243 -5.991983669543239 -2.137339223805983 5.419923650939553 19.215943821343423 3.76602473399269 3.182417060098533 14.132304109071173 -0.008490774782787777 0 0 0 -2.2156980836797193 2.7202009839215626 3.566760558358335 -10.4485393890602 -25.055327392817272 5.525210451533683 0 0 0 0 0 0 -0.39920838594790703 0.3293417959979321 -2.5345248956009856 -14.034384532297365 -0.9775667065444252 -43.11984680748824 -122.63973853284635 -5.705243722049779 13.078559680587038 8.083220981673882 36.04912941959343 -4.092274331432726 6.1265681066443305 6.959427512801189 -97.30042667317996 6.111957950729785 7.0653746429467486 -98.29648336657709 4.66929504798394 2.136800243399879 -49.16261212602536 5.617784312080074 10.988758719689208 -96.92184488111172 1.9946585166334199 7.097736633727576 -98.75658822614115 4.669287384194047 2.1367914861306794 -49.16260730574081 6.126787305947453 6.957705574199391 -97.2843893420786 6.111721476581629 7.067104722403314 -98.3125328011298 4.669292493387327 2.136794476417718 -49.162599899905736 6.126567251446038 6.959427082745805 -97.30042667317996 6.111957950729785 7.0653746429467486 -98.29648336657709 4.669295473750041 2.136800456991811 -49.16261212602536 10.157644091755238 33.85992105248742 5.27378742749987 61.116912098846846 31.600710805023212 4.056371027726206 27.164952301572516 12.469397169790689 -2.411528547634753 -2.4289821458133125 0.0433285931252816 -0.2525559157048578 64.31784493236145 -11.474915147850755 31.641869542784935 98.9617028145665 -7.156848069805858 -10.082529759700458 -4.259125046534944 41.811228213773006 -22.323225015753643 -6.101750090912027 7.567265925079894 102.26755457714553 -6.101766728615297 7.567269370178064 102.26753280493537 -4.858842765926351 2.3258212157891456 51.13807040302562 -6.101752231899912 7.5672676476289755 102.26755457714553 -6.101769297800753 7.567271954001709 102.26753280493537 -4.858847022960866 2.3258212157891456 51.13806559708134 -6.101750519109605 7.5672650638053565 102.26755457714553 -6.101766728615297 7.567269370178064 102.26753280493537 -4.858842765926351 2.3258212157891456 51.13807040302562 -6.101750947307183 7.567265925079894 102.26755457714553 -6.101767156812874 7.567269370178064 102.26753280493537 -4.858842765926351 2.3258212157891456 51.13807040302562 12.505732753306608 41.0420780782166 9.978902220393788 -28.819428455058528 59.839787743033234 -8.874111970899056 -10.263368635207737 27.73197116061607 1.5695168742452634 5.368358686427443 -27.35911332704528 22.320296031646265 -6.286283303400285 55.77707405953684 2.8315607115168686 -0.7533653858499598 -19.593413452634355 -20.5330826757516 3.350604485033084e-7 -9.330346418789544 0.0000010437967233709457 -0.5306652624196148 -30.045529248401287 -2.8916970284184123 10.35004564193336 64.64654205568914 1.8766446166852613 -1.2430510461213289 -25.410178083108306 8.948105039160902 -0.0000028765030405467127 -7.064145266701317 -3.059180168920358e-7
0.08264221996068954 -1.5858015736612394 0.0929245874285698 -5.596600216221887 -5.2101231042937455 -2.5750107035095855 4.86723556680286 16.901720402738782 3.5758089329731853 2.8684535427750224 13.91195484401767 -1.2573233333913698 0 0 0 -2.1906134176545042 2.484000062326663 3.906512884669402 -10.241214011507521 -23.1109900916471 6.286799161519065 0 0 0 0 0 0 -1.6644183856150492 0.4088706001530088 -0.3247402589842582 -12.188218485577677 -7.959399513444193 -41.23717232022806 -119.27690860806844 -5.9853842685386995 12.693030563577087 6.438755610490593 38.85820643861349 -6.318014380534835 6.1265681066443305 6.959427512801189 -97.30042667317996 6.111957950729785 7.0653746429467486 -98.29648336657709 4.66929504798394 2.136800243399879 -49.16261212602536 5.617784312080074 10.988758719689208 -96.92184488111172 1.9946585166334199 7.097736633727576 -98.75658822614115 4.669287384194047 2.1367914861306794 -49.16260730574081 6.126787305947453 6.957705574199391 -97.2843893420786 6.111721476581629 7.067104722403314 -98.3125328011298 4.669292493387327 2.136794476417718 -49.162599899905736 6.126567251446038 6.959427082745805 -97.30042667317996 6.111957950729785 7.0653746429467486 -98.29648336657709 4.669295473750041 2.136800456991811 -49.16261212602536 10.157644091755238 33.85992105248742 5.27378742749987 61.116912098846846 31.600710805023212 4.056371027726206 27.164952301572516 12.469397169790689 -2.411528547634753 -1.4650667753750328 0.0649072415346586 -1.6119327759651143 66.87788514167991 -17.835862026495928 29.339465710944314 91.55738916052701 -7.345242015933558 -9.052576450863636 -2.162702375624742 41.731928007662 -24.102785790938622 -6.101750090912027 7.567265925079894 102.26755457714553 -6.101766728615297 7.567269370178064 102.26753280493537 -4.858842765926351 2.3258212157891456 51.13807040302562 -6.101752231899912 7.5672676476289755 102.26755457714553 -6.101769297800753 7.567271954001709 102.26753280493537 -4.858847022960866 2.3258212157891456 51.13806559708134 -6.101750519109605 7.5672650638053565 102.26755457714553 -6.101766728615297 7.567269370178064 102.26753280493537 -4.858842765926351 2.3258212157891456 51.13807040302562 -6.101750947307183 7.567265925079894 102.26755457714553 -6.101767156812874 7.567269370178064 102.26753280493537 -4.858842765926351 2.3258212157891456 51.13807040302562 12.505732753306608 41.0420780782166 9.978902220393788 -28.819428455058528 59.839787743033234 -8.874111970899056 -10.263368635207737 27.73197116061607 1.5695168742452634 5.513961312778677 -27.215280548128337 21.954197624245772 -6.008966826595318 55.298529321222084 2.6097935963534096 1.1751851732691303 -20.730924097032613 -20.245949778960906 1.909662051231987e-7 -8.243706769091308 -0.000002152754127957042 -1.074201381594378 -30.430976801440583 -3.4732817937162612 12.417699249233067 62.75899933968355 4.11740336085547 -0.5706850939969054 -24.666851200255714 8.600376533023889 -0.000001462790548759067 -6.691100071371 0.0000014177212064436844
0.20255081355571747 -1.487121077445419 0.1053447350859642 -6.72342985172512 -4.41968625897609 -3.0441929886726737 4.409449304649683 14.53137922879324 3.3056576678201517 2.614995899785005 13.451452144445017 -2.182314573212306 0 0 0 -2.151419960542189 2.5157932612750993 4.173956595127392 -10.034229955714654 -20.83401790559398 7.088123412449095 0 0 0 0 0 0 -2.978301373451169 0.5599357080797889 1.7028090570449343 -11.030890101010982 -14.602394226000955 -39.20314612617226 -115.35235677040062 -6.282820241233613 12.22343766634729 4.802556842738471 41.344156720059146 -8.834001086950995 6.1265681066443305 6.959427512801189 -97.30042667317996 6.111957950729785 7.0653746429467486 -98.29648336657709 4.66929504798394 2.136800243399879 -49.16261212602536 5.617784312080074 10.988758719689208 -96.92184488111172 1.9946585166334199 7.097736633727576 -98.75658822614115 4.669287384194047 2.1367914861306794 -49.16260730574081 6.126787305947453 6.957705574199391 -97.2843893420786 6.111721476581629 7.067104722403314 -98.3125328011298 4.669292493387327 2.136794476417718 -49.162599899905736 6.126567251446038 6.959427082745805 -97.30042667317996 6.111957950729785 7.0653746429467486 -98.29648336657709 4.669295473750041 2.136800456991811 -49.16261212602536 10.157644091755238 33.85992105248742 5.27378742749987 61.116912098846846 31.600710805023212 4.056371027726206 27.164952301572516 12.469397169790689 -2.411528547634753 -0.33218881687832047 0.12653988267198968 -2.9696545277625184 69.63883155291732 -24.05652403886039 26.707457070860087 83.27763353880495 -7.39791636943189 -7.883261031574654 -0.0195431369739025 41.34921526962345 -25.93639491122896 -6.101750090912027 7.567265925079894 102.26755457714553 -6.101766728615297 7.567269370178064 102.26753280493537 -4.858842765926351 2.3258212157891456 51.13807040302562 -6.101752231899912 7.5672676476289755 102.26755457714553 -6.101769297800753 7.567271954001709 102.26753280493537 -4.858847022960866 2.3258212157891456 51.13806559708134 -6.101750519109605 7.5672650638053565 102.26755457714553 -6.101766728615297 7.567269370178064 102.26753280493537 -4.858842765926351 2.3258212157891456 51.13807040302562 -6.101750947307183 7.567265925079894 102.26755457714553 -6.101767156812874 7.567269370178064 102.26753280493537 -4.858842765926351 2.3258212157891456 51.13807040302562 12.505732753306608 41.0420780782166 9.978902220393788 -28.819428455058528 59.839787743033234 -8.874111970899056 -10.263368635207737 27.73197116061607 1.5695168742452634 5.954611209969146 -26.630694822277263 21.425033259934583 -5.482621984126926 53.773031300270915 2.602476169831833 2.694245101833951 -20.96425039709292 -19.76882176129724 -0.000004541199308391255 -7.090558649548708 0.000008674607551500986 -1.8486442372603447 -30.00796995481595 -3.9902916890143194 13.556568228186986 59.44860773750973 5.34176626571517 0.4042666417303581 -23.658711286722056 8.308231348922531 1.1883907308262369e-7 -6.1108565989162225 0.000001969532438992599
